# xmcd
#
# Track frame offsets:
#	150
#	12080
#	30552
#	46165
#	61508
#	76298
#	93400
#	108071
#	124421
#	140207
#	155121
#	175587
#	188728
#	212425
#	228027
#	232091
#	250878
#	271597
#	290727
#
# Disc length: 4153 seconds
#
# Revision: 0
# Processed by: cddbd v1.4PL0 Copyright (c) Steve Scherf et al.
# Submitted via: EasyCDDAExtractor 4.6.9.1
#
DISCID=f6103713
DTITLE=Martina McBride - Greatest Hits
DYEAR=2001
DGENRE=Country
TTITLE0=My Baby Loves Me
TTITLE1=Life #9
TTITLE2=Independence Day
TTITLE3=Strangers
TTITLE4=Safe in the Arms of Love
TTITLE5=Wild Angels
TTITLE6=Valentine
TTITLE7=A Broken Wing
TTITLE8=Happy Girl
TTITLE9=Wrong Again
TTITLE10=Whatever You Say
TTITLE11=I Love You
TTITLE12=Love's The Only House
TTITLE13=There You Are
TTITLE14=When God-Fearin' Women Get The Blues (Intro)
TTITLE15=When God-Fearin' Women Get The Blues
TTITLE16=Where Would You Be
TTITLE17=Concrete Angel
TTITLE18=Blessed
EXTD=
EXTT0=
EXTT1=
EXTT2=
EXTT3=
EXTT4=
EXTT5=
EXTT6=
EXTT7=
EXTT8=
EXTT9=
EXTT10=
EXTT11=
EXTT12=
EXTT13=
EXTT14=
EXTT15=
EXTT16=
EXTT17=
EXTT18=
PLAYORDER=
